<svg width="14" height="13" viewBox="0 0 14 13" fill="none" xmlns="http://www.w3.org/2000/svg">
<path fill-rule="evenodd" clip-rule="evenodd" d="M7.11671 0C3.32099 0 0.233399 2.86717 0.233399 6.3917C0.233399 7.50669 0.547402 8.60216 1.14263 9.56574L0.0118926 12.7149C-0.0150712 12.7905 0.00458466 12.8735 0.0630482 12.9315C0.107904 12.9759 0.169895 13 0.233399 13C0.253307 13 0.272962 12.9976 0.29287 12.9928L3.9951 12.0883C4.95676 12.5433 6.03408 12.7834 7.11671 12.7834C10.9124 12.7834 14 9.91621 14 6.3917C14 2.86717 10.9124 0 7.11671 0ZM3.96662 7.36666C3.45203 7.36666 3.03345 6.97797 3.03345 6.5C3.03345 6.02203 3.45203 5.63335 3.96662 5.63335C4.48147 5.63335 4.90005 6.02203 4.90005 6.5C4.90005 6.97797 4.48147 7.36666 3.96662 7.36666ZM7.00002 7.36666C6.48542 7.36666 6.06659 6.97797 6.06659 6.5C6.06659 6.02203 6.48542 5.63335 7.00002 5.63335C7.51463 5.63335 7.93346 6.02203 7.93346 6.5C7.93346 6.97797 7.51463 7.36666 7.00002 7.36666ZM10.033 7.36404C9.51812 7.36404 9.09953 6.97535 9.09953 6.49738C9.09953 6.01941 9.51812 5.63073 10.033 5.63073C10.5478 5.63073 10.9662 6.01941 10.9662 6.49738C10.9662 6.97535 10.5478 7.36404 10.033 7.36404Z" fill="white"/>
</svg>
