<svg width="15" height="15" viewBox="0 0 15 15" fill="none" xmlns="http://www.w3.org/2000/svg">
<path fill-rule="evenodd" clip-rule="evenodd" d="M7.49489 0.824219C3.82808 0.824219 0.828125 3.82431 0.828125 7.49112C0.828125 11.1578 3.82808 14.1577 7.49489 14.1577C11.1614 14.1577 14.1614 11.1578 14.1614 7.49112C14.1614 3.82431 11.1614 0.824219 7.49489 0.824219ZM8.16124 12.1577H6.82829V10.8242H8.16124V12.1577ZM9.56151 7.02448L8.96146 7.62422C8.42824 8.09085 8.16124 8.49103 8.16124 9.49094H6.82829V9.15775C6.82829 8.42457 7.09478 7.75767 7.628 7.29121L8.42824 6.42439C8.69472 6.22431 8.82783 5.89112 8.82783 5.49094C8.82783 4.75758 8.2283 4.15748 7.49489 4.15748C6.76147 4.15748 6.16144 4.75758 6.16144 5.49094H4.82824C4.82824 4.02422 6.02807 2.82439 7.49489 2.82439C8.96146 2.82439 10.1616 4.02422 10.1616 5.49094C10.1616 6.09103 9.8948 6.6243 9.56151 7.02448Z" fill="white" fill-opacity="0.9"/>
</svg>
