<svg width="15" height="15" viewBox="0 0 15 15" fill="none" xmlns="http://www.w3.org/2000/svg">
<path fill-rule="evenodd" clip-rule="evenodd" d="M7.90936 0.839844L7.57301 0.999348L1.37521 3.60245L0.826172 3.83266V4.38154C0.826172 7.32137 2.01247 9.90674 3.42933 11.8017C4.1375 12.7401 4.89921 13.5192 5.64282 14.0682C6.38644 14.6173 7.11272 15.0068 7.90936 15.0068C8.72387 15.0068 9.43255 14.6173 10.1764 14.0682C10.9198 13.5192 11.6815 12.7401 12.3897 11.8017C13.8065 9.90674 14.9928 7.32137 14.9928 4.38154V3.83266L14.4438 3.60245L8.24623 0.999348L7.90936 0.839844ZM7.90936 2.77002V13.2361C7.83898 13.2361 7.32488 13.1117 6.74091 12.6871C6.15641 12.2619 5.48345 11.5713 4.86351 10.7566C3.73024 9.25137 2.84483 7.16169 2.70305 4.94813L7.90936 2.78791V2.77002Z" fill="white" fill-opacity="0.9"/>
</svg>
